<svg viewBox="0 0 31.26 5.83" fill="none" xmlns="http://www.w3.org/2000/svg" role="img" aria-label="DYNX Labs">
  <title>DYNX Labs</title>
  <g>

    <!-- D — Mark / Icon -->
    <path fill="#B3B3B3" fill-rule="nonzero" d="M0.96 4.7l2.32 -0.7 0 -1.09 0 0 0 -1.08 -2.32 -0.71 0 3.58zm0.56 0.83l-0.89 0.27c-0.05,0.02 -0.1,0.03 -0.15,0.03 -0.27,0 -0.48,-0.22 -0.48,-0.48l0 -4.87c0,-0.05 0.01,-0.09 0.02,-0.14 0.08,-0.25 0.34,-0.4 0.6,-0.32l3.28 0.99 0 0.01c0.19,0.06 0.34,0.24 0.34,0.45l0 1.44 0 0 0 1.44c0,0.21 -0.13,0.4 -0.34,0.46l-2.38 0.72z"/>

    <!-- YN — Letterforms -->
    <path fill="#B3B3B3" fill-rule="nonzero" d="M6.1 5.02l0 -1.48 -1.58 -2.76 1.35 0 0.61 1.28c0.06,0.11 0.11,0.23 0.15,0.35 0.05,0.13 0.09,0.26 0.14,0.42l-0.17 0c0.04,-0.16 0.08,-0.29 0.12,-0.42 0.04,-0.12 0.09,-0.24 0.14,-0.35l0.57 -1.28 1.35 0 -1.54 2.76 0 1.48 -1.14 0zm3.08 0l0 -4.24 1.25 0 1.01 1.66c0.09,0.14 0.17,0.29 0.25,0.43 0.07,0.15 0.15,0.31 0.22,0.48 0.07,0.17 0.14,0.38 0.22,0.61l-0.1 0c-0.01,-0.16 -0.03,-0.33 -0.04,-0.54 -0.01,-0.2 -0.03,-0.4 -0.04,-0.59 -0.01,-0.2 -0.01,-0.37 -0.01,-0.5l0 -1.55 1.18 0 0 4.24 -1.25 0 -0.95 -1.55c-0.1,-0.18 -0.19,-0.34 -0.27,-0.5 -0.09,-0.15 -0.16,-0.31 -0.24,-0.48 -0.07,-0.17 -0.16,-0.37 -0.26,-0.59l0.12 0c0.02,0.2 0.03,0.39 0.05,0.59 0.01,0.2 0.02,0.38 0.03,0.55 0.01,0.17 0.01,0.31 0.01,0.43l0 1.55 -1.18 0z"/>

    <!-- X — Letterform -->
    <path fill="#BDBFC1" d="M16.37 0.78l1.22 0 -1.41 2.12 1.41 2.13 -1.26 0 -1.06 -1.58 0.33 -0.11c0.06,-0.02 0.1,-0.07 0.1,-0.13l0 -0.27 0 0 0 -0.27c0,-0.06 -0.04,-0.12 -0.1,-0.14l-0.32 -0.1 1.09 -1.65zm-1.26 2.42l-0.17 -0.26 0.17 -0.26 0.31 0.09 0 0.17 0 0 0 0.16 -0.31 0.1z"/>
    <polygon fill="#BDBFC1" points="15.28,4.26 14.77,5.03 13.54,5.03 14.67,3.34"/>
    <polygon fill="#BDBFC1" points="13.5,0.78 14.77,0.78 15.31,1.59 14.67,2.54"/>

    <!-- LABS — Wordmark -->
    <path fill="#E6E6E6" fill-rule="nonzero" d="M18.79 5.03l0 -4.25 0.51 0 0 3.77 1.85 0 0 0.48 -2.36 0zm3.01 0l1.07 -4.25 0.68 0 1.07 4.25 -0.51 0 -0.27 -1.13 -1.25 0 -0.27 1.13 -0.52 0zm0.89 -1.57l1.04 0 -0.32 -1.31c-0.06,-0.25 -0.1,-0.46 -0.14,-0.63 -0.03,-0.16 -0.05,-0.27 -0.06,-0.32 -0.01,0.05 -0.03,0.16 -0.06,0.32 -0.03,0.17 -0.08,0.38 -0.14,0.62l-0.32 1.32zm2.74 1.57l0 -4.25 1.16 0c0.38,0 0.67,0.09 0.88,0.29 0.22,0.19 0.32,0.46 0.32,0.81 0,0.19 -0.04,0.36 -0.12,0.5 -0.08,0.15 -0.19,0.26 -0.33,0.34 -0.15,0.07 -0.32,0.11 -0.52,0.11l0 -0.09c0.21,0 0.4,0.04 0.56,0.13 0.16,0.09 0.29,0.22 0.37,0.38 0.09,0.17 0.14,0.37 0.14,0.6 0,0.24 -0.05,0.45 -0.15,0.63 -0.1,0.18 -0.24,0.31 -0.42,0.41 -0.18,0.09 -0.39,0.14 -0.64,0.14l-1.25 0zm0.49 -0.47l0.7 0c0.24,0 0.42,-0.07 0.56,-0.2 0.14,-0.13 0.21,-0.3 0.21,-0.53 0,-0.23 -0.07,-0.42 -0.21,-0.57 -0.14,-0.14 -0.32,-0.22 -0.56,-0.22l-0.7 0 0 1.52zm0 -1.97l0.67 0c0.21,0 0.39,-0.06 0.51,-0.18 0.13,-0.12 0.19,-0.29 0.19,-0.49 0,-0.21 -0.06,-0.37 -0.19,-0.49 -0.12,-0.12 -0.29,-0.18 -0.51,-0.18l-0.67 0 0 1.34zm4.07 2.5c-0.27,0 -0.5,-0.05 -0.69,-0.14 -0.19,-0.09 -0.34,-0.23 -0.45,-0.4 -0.1,-0.18 -0.16,-0.39 -0.16,-0.63l0.5 0c0,0.22 0.07,0.39 0.22,0.51 0.14,0.12 0.33,0.19 0.58,0.19 0.24,0 0.43,-0.06 0.56,-0.18 0.13,-0.12 0.2,-0.29 0.2,-0.51 0,-0.17 -0.04,-0.32 -0.13,-0.44 -0.09,-0.13 -0.22,-0.22 -0.38,-0.27l-0.56 -0.18c-0.28,-0.09 -0.5,-0.24 -0.65,-0.45 -0.15,-0.21 -0.23,-0.46 -0.23,-0.74 0,-0.23 0.05,-0.43 0.15,-0.6 0.1,-0.17 0.24,-0.3 0.42,-0.39 0.18,-0.1 0.39,-0.15 0.64,-0.15 0.36,0 0.65,0.11 0.86,0.31 0.22,0.21 0.33,0.49 0.34,0.83l-0.51 0c0,-0.21 -0.06,-0.37 -0.18,-0.49 -0.13,-0.12 -0.3,-0.18 -0.52,-0.18 -0.22,0 -0.39,0.06 -0.51,0.17 -0.12,0.11 -0.18,0.26 -0.18,0.45 0,0.18 0.04,0.33 0.13,0.46 0.09,0.12 0.22,0.22 0.39,0.27l0.56 0.19c0.28,0.09 0.49,0.24 0.64,0.45 0.15,0.21 0.23,0.47 0.23,0.75 0,0.24 -0.06,0.44 -0.16,0.61 -0.11,0.18 -0.25,0.32 -0.44,0.41 -0.19,0.1 -0.41,0.15 -0.67,0.15z"/>

  </g>
</svg>